STARTFONT 2.1
FONT -Misc-Tamsyn-Bold-R-Normal--17-123-100-100-C-80-ISO8859-1
SIZE 17 100 100
FONTBOUNDINGBOX 8 17 0 -4

STARTPROPERTIES 24
FONTNAME_REGISTRY ""
FOUNDRY "Misc"
FAMILY_NAME "Tamsyn"
WEIGHT_NAME "Bold"
SLANT "R"
SETWIDTH_NAME "Normal"
ADD_STYLE_NAME ""
PIXEL_SIZE 17
POINT_SIZE 123
RESOLUTION_X 100
RESOLUTION_Y 100
SPACING "C"
AVERAGE_WIDTH 80
CHARSET_REGISTRY "ISO8859"
CHARSET_ENCODING "1"
COPYRIGHT "(c) 2010 Scott Fial"
CAP_HEIGHT 9
X_HEIGHT 7
FONT_VERSION "1.6"
WEIGHT 10
QUAD_WIDTH 8
DEFAULT_CHAR 0
FONT_DESCENT 4
FONT_ASCENT 13
ENDPROPERTIES

CHARS 223

STARTCHAR U+0000
ENCODING 0
SWIDTH 392 0
DWIDTH 8 0
BBX 8 17 0 -4
BITMAP
00
00
00
00
00
7E
42
42
42
42
42
42
7E
00
00
00
00
ENDCHAR

STARTCHAR U+0001
ENCODING 1
SWIDTH 392 0
DWIDTH 8 0
BBX 8 17 0 -4
BITMAP
00
00
00
00
00
7E
42
42
42
42
42
42
7E
00
00
00
00
ENDCHAR

STARTCHAR U+0002
ENCODING 2
SWIDTH 392 0
DWIDTH 8 0
BBX 8 17 0 -4
BITMAP
55
AA
55
AA
55
AA
55
AA
55
AA
55
AA
55
AA
55
AA
55
ENDCHAR

STARTCHAR U+0003
ENCODING 3
SWIDTH 392 0
DWIDTH 8 0
BBX 8 17 0 -4
BITMAP
00
00
00
00
00
7E
42
42
42
42
42
42
7E
00
00
00
00
ENDCHAR

STARTCHAR U+0004
ENCODING 4
SWIDTH 392 0
DWIDTH 8 0
BBX 8 17 0 -4
BITMAP
00
00
00
00
00
7E
42
42
42
42
42
42
7E
00
00
00
00
ENDCHAR

STARTCHAR U+0005
ENCODING 5
SWIDTH 392 0
DWIDTH 8 0
BBX 8 17 0 -4
BITMAP
00
00
00
00
00
7E
42
42
42
42
42
42
7E
00
00
00
00
ENDCHAR

STARTCHAR U+0006
ENCODING 6
SWIDTH 392 0
DWIDTH 8 0
BBX 8 17 0 -4
BITMAP
00
00
00
00
00
7E
42
42
42
42
42
42
7E
00
00
00
00
ENDCHAR

STARTCHAR U+0007
ENCODING 7
SWIDTH 392 0
DWIDTH 8 0
BBX 8 17 0 -4
BITMAP
00
00
00
00
00
7E
42
42
42
42
42
42
7E
00
00
00
00
ENDCHAR

STARTCHAR U+0008
ENCODING 8
SWIDTH 392 0
DWIDTH 8 0
BBX 8 17 0 -4
BITMAP
00
00
00
00
00
7E
42
42
42
42
42
42
7E
00
00
00
00
ENDCHAR

STARTCHAR U+0009
ENCODING 9
SWIDTH 392 0
DWIDTH 8 0
BBX 8 17 0 -4
BITMAP
00
00
00
00
00
7E
42
42
42
42
42
42
7E
00
00
00
00
ENDCHAR

STARTCHAR U+000a
ENCODING 10
SWIDTH 392 0
DWIDTH 8 0
BBX 8 17 0 -4
BITMAP
00
00
00
00
00
7E
42
42
42
42
42
42
7E
00
00
00
00
ENDCHAR

STARTCHAR U+000b
ENCODING 11
SWIDTH 392 0
DWIDTH 8 0
BBX 8 17 0 -4
BITMAP
18
18
18
18
18
18
18
18
F8
00
00
00
00
00
00
00
00
ENDCHAR

STARTCHAR U+000c
ENCODING 12
SWIDTH 392 0
DWIDTH 8 0
BBX 8 17 0 -4
BITMAP
00
00
00
00
00
00
00
00
F8
18
18
18
18
18
18
18
18
ENDCHAR

STARTCHAR U+000d
ENCODING 13
SWIDTH 392 0
DWIDTH 8 0
BBX 8 17 0 -4
BITMAP
00
00
00
00
00
00
00
00
1F
18
18
18
18
18
18
18
18
ENDCHAR

STARTCHAR U+000e
ENCODING 14
SWIDTH 392 0
DWIDTH 8 0
BBX 8 17 0 -4
BITMAP
18
18
18
18
18
18
18
18
1F
00
00
00
00
00
00
00
00
ENDCHAR

STARTCHAR U+000f
ENCODING 15
SWIDTH 392 0
DWIDTH 8 0
BBX 8 17 0 -4
BITMAP
18
18
18
18
18
18
18
18
FF
18
18
18
18
18
18
18
18
ENDCHAR

STARTCHAR U+0010
ENCODING 16
SWIDTH 392 0
DWIDTH 8 0
BBX 8 17 0 -4
BITMAP
FF
00
00
00
00
00
00
00
00
00
00
00
00
00
00
00
00
ENDCHAR

STARTCHAR U+0011
ENCODING 17
SWIDTH 392 0
DWIDTH 8 0
BBX 8 17 0 -4
BITMAP
00
00
00
00
FF
00
00
00
00
00
00
00
00
00
00
00
00
ENDCHAR

STARTCHAR U+0012
ENCODING 18
SWIDTH 392 0
DWIDTH 8 0
BBX 8 17 0 -4
BITMAP
00
00
00
00
00
00
00
00
FF
00
00
00
00
00
00
00
00
ENDCHAR

STARTCHAR U+0013
ENCODING 19
SWIDTH 392 0
DWIDTH 8 0
BBX 8 17 0 -4
BITMAP
00
00
00
00
00
00
00
00
00
00
00
00
FF
00
00
00
00
ENDCHAR

STARTCHAR U+0014
ENCODING 20
SWIDTH 392 0
DWIDTH 8 0
BBX 8 17 0 -4
BITMAP
00
00
00
00
00
00
00
00
00
00
00
00
00
00
00
00
FF
ENDCHAR

STARTCHAR U+0015
ENCODING 21
SWIDTH 392 0
DWIDTH 8 0
BBX 8 17 0 -4
BITMAP
18
18
18
18
18
18
18
18
1F
18
18
18
18
18
18
18
18
ENDCHAR

STARTCHAR U+0016
ENCODING 22
SWIDTH 392 0
DWIDTH 8 0
BBX 8 17 0 -4
BITMAP
18
18
18
18
18
18
18
18
F8
18
18
18
18
18
18
18
18
ENDCHAR

STARTCHAR U+0017
ENCODING 23
SWIDTH 392 0
DWIDTH 8 0
BBX 8 17 0 -4
BITMAP
18
18
18
18
18
18
18
18
FF
00
00
00
00
00
00
00
00
ENDCHAR

STARTCHAR U+0018
ENCODING 24
SWIDTH 392 0
DWIDTH 8 0
BBX 8 17 0 -4
BITMAP
00
00
00
00
00
00
00
00
FF
18
18
18
18
18
18
18
18
ENDCHAR

STARTCHAR U+0019
ENCODING 25
SWIDTH 392 0
DWIDTH 8 0
BBX 8 17 0 -4
BITMAP
18
18
18
18
18
18
18
18
18
18
18
18
18
18
18
18
18
ENDCHAR

STARTCHAR U+001a
ENCODING 26
SWIDTH 392 0
DWIDTH 8 0
BBX 8 17 0 -4
BITMAP
00
00
00
00
00
7E
42
42
42
42
42
42
7E
00
00
00
00
ENDCHAR

STARTCHAR U+001b
ENCODING 27
SWIDTH 392 0
DWIDTH 8 0
BBX 8 17 0 -4
BITMAP
00
00
00
00
00
7E
42
42
42
42
42
42
7E
00
00
00
00
ENDCHAR

STARTCHAR U+001c
ENCODING 28
SWIDTH 392 0
DWIDTH 8 0
BBX 8 17 0 -4
BITMAP
00
00
00
00
00
7E
42
42
42
42
42
42
7E
00
00
00
00
ENDCHAR

STARTCHAR U+001d
ENCODING 29
SWIDTH 392 0
DWIDTH 8 0
BBX 8 17 0 -4
BITMAP
00
00
00
00
00
7E
42
42
42
42
42
42
7E
00
00
00
00
ENDCHAR

STARTCHAR U+001e
ENCODING 30
SWIDTH 392 0
DWIDTH 8 0
BBX 8 17 0 -4
BITMAP
00
00
00
00
00
7E
42
42
42
42
42
42
7E
00
00
00
00
ENDCHAR

STARTCHAR U+001f
ENCODING 31
SWIDTH 392 0
DWIDTH 8 0
BBX 8 17 0 -4
BITMAP
00
00
00
00
00
7E
42
42
42
42
42
42
7E
00
00
00
00
ENDCHAR

STARTCHAR U+0020
ENCODING 32
SWIDTH 392 0
DWIDTH 8 0
BBX 8 17 0 -4
BITMAP
00
00
00
00
00
00
00
00
00
00
00
00
00
00
00
00
00
ENDCHAR

STARTCHAR U+0021
ENCODING 33
SWIDTH 392 0
DWIDTH 8 0
BBX 8 17 0 -4
BITMAP
00
00
00
18
3C
3C
3C
18
18
00
00
18
18
00
00
00
00
ENDCHAR

STARTCHAR U+0022
ENCODING 34
SWIDTH 392 0
DWIDTH 8 0
BBX 8 17 0 -4
BITMAP
00
00
6C
6C
6C
6C
00
00
00
00
00
00
00
00
00
00
00
ENDCHAR

STARTCHAR U+0023
ENCODING 35
SWIDTH 392 0
DWIDTH 8 0
BBX 8 17 0 -4
BITMAP
00
00
00
00
36
36
7F
36
36
36
7F
36
36
00
00
00
00
ENDCHAR

STARTCHAR U+0024
ENCODING 36
SWIDTH 392 0
DWIDTH 8 0
BBX 8 17 0 -4
BITMAP
00
00
00
18
18
3E
60
60
3C
06
06
7C
18
18
00
00
00
ENDCHAR

STARTCHAR U+0025
ENCODING 37
SWIDTH 392 0
DWIDTH 8 0
BBX 8 17 0 -4
BITMAP
00
00
00
00
38
6D
6E
3C
08
1E
3B
5B
0E
00
00
00
00
ENDCHAR

STARTCHAR U+0026
ENCODING 38
SWIDTH 392 0
DWIDTH 8 0
BBX 8 17 0 -4
BITMAP
00
00
00
38
6C
6C
6C
38
6F
66
66
67
3D
00
00
00
00
ENDCHAR

STARTCHAR U+0027
ENCODING 39
SWIDTH 392 0
DWIDTH 8 0
BBX 8 17 0 -4
BITMAP
00
00
18
18
18
18
00
00
00
00
00
00
00
00
00
00
00
ENDCHAR

STARTCHAR U+0028
ENCODING 40
SWIDTH 392 0
DWIDTH 8 0
BBX 8 17 0 -4
BITMAP
00
00
00
0C
18
18
30
30
30
30
30
30
18
18
0C
00
00
ENDCHAR

STARTCHAR U+0029
ENCODING 41
SWIDTH 392 0
DWIDTH 8 0
BBX 8 17 0 -4
BITMAP
00
00
00
30
18
18
0C
0C
0C
0C
0C
0C
18
18
30
00
00
ENDCHAR

STARTCHAR U+002a
ENCODING 42
SWIDTH 392 0
DWIDTH 8 0
BBX 8 17 0 -4
BITMAP
00
00
00
00
00
00
36
1C
7F
1C
36
00
00
00
00
00
00
ENDCHAR

STARTCHAR U+002b
ENCODING 43
SWIDTH 392 0
DWIDTH 8 0
BBX 8 17 0 -4
BITMAP
00
00
00
00
00
18
18
18
FF
18
18
18
00
00
00
00
00
ENDCHAR

STARTCHAR U+002c
ENCODING 44
SWIDTH 392 0
DWIDTH 8 0
BBX 8 17 0 -4
BITMAP
00
00
00
00
00
00
00
00
00
00
00
1C
1C
0C
0C
18
00
ENDCHAR

STARTCHAR U+002d
ENCODING 45
SWIDTH 392 0
DWIDTH 8 0
BBX 8 17 0 -4
BITMAP
00
00
00
00
00
00
00
00
7E
00
00
00
00
00
00
00
00
ENDCHAR

STARTCHAR U+002e
ENCODING 46
SWIDTH 392 0
DWIDTH 8 0
BBX 8 17 0 -4
BITMAP
00
00
00
00
00
00
00
00
00
00
00
1C
1C
00
00
00
00
ENDCHAR

STARTCHAR U+002f
ENCODING 47
SWIDTH 392 0
DWIDTH 8 0
BBX 8 17 0 -4
BITMAP
00
00
00
03
03
06
06
0C
0C
18
18
30
30
60
60
00
00
ENDCHAR

STARTCHAR U+0030
ENCODING 48
SWIDTH 392 0
DWIDTH 8 0
BBX 8 17 0 -4
BITMAP
00
00
00
00
3C
66
6E
6E
66
76
76
66
3C
00
00
00
00
ENDCHAR

STARTCHAR U+0031
ENCODING 49
SWIDTH 392 0
DWIDTH 8 0
BBX 8 17 0 -4
BITMAP
00
00
00
00
18
38
78
18
18
18
18
18
18
00
00
00
00
ENDCHAR

STARTCHAR U+0032
ENCODING 50
SWIDTH 392 0
DWIDTH 8 0
BBX 8 17 0 -4
BITMAP
00
00
00
00
3C
66
06
06
0C
18
30
60
7E
00
00
00
00
ENDCHAR

STARTCHAR U+0033
ENCODING 51
SWIDTH 392 0
DWIDTH 8 0
BBX 8 17 0 -4
BITMAP
00
00
00
00
7E
06
0C
1C
06
06
06
66
3C
00
00
00
00
ENDCHAR

STARTCHAR U+0034
ENCODING 52
SWIDTH 392 0
DWIDTH 8 0
BBX 8 17 0 -4
BITMAP
00
00
00
00
06
0E
1E
36
66
7F
06
06
06
00
00
00
00
ENDCHAR

STARTCHAR U+0035
ENCODING 53
SWIDTH 392 0
DWIDTH 8 0
BBX 8 17 0 -4
BITMAP
00
00
00
00
7E
60
60
7C
06
06
06
66
3C
00
00
00
00
ENDCHAR

STARTCHAR U+0036
ENCODING 54
SWIDTH 392 0
DWIDTH 8 0
BBX 8 17 0 -4
BITMAP
00
00
00
00
18
30
60
7C
66
66
66
66
3C
00
00
00
00
ENDCHAR

STARTCHAR U+0037
ENCODING 55
SWIDTH 392 0
DWIDTH 8 0
BBX 8 17 0 -4
BITMAP
00
00
00
00
7E
06
0C
0C
18
18
30
30
30
00
00
00
00
ENDCHAR

STARTCHAR U+0038
ENCODING 56
SWIDTH 392 0
DWIDTH 8 0
BBX 8 17 0 -4
BITMAP
00
00
00
00
3C
66
66
66
3C
66
66
66
3C
00
00
00
00
ENDCHAR

STARTCHAR U+0039
ENCODING 57
SWIDTH 392 0
DWIDTH 8 0
BBX 8 17 0 -4
BITMAP
00
00
00
00
3C
66
66
66
66
3E
06
0C
18
00
00
00
00
ENDCHAR

STARTCHAR U+003a
ENCODING 58
SWIDTH 392 0
DWIDTH 8 0
BBX 8 17 0 -4
BITMAP
00
00
00
00
00
00
1C
1C
00
00
00
1C
1C
00
00
00
00
ENDCHAR

STARTCHAR U+003b
ENCODING 59
SWIDTH 392 0
DWIDTH 8 0
BBX 8 17 0 -4
BITMAP
00
00
00
00
00
00
1C
1C
00
00
00
1C
1C
0C
0C
18
00
ENDCHAR

STARTCHAR U+003c
ENCODING 60
SWIDTH 392 0
DWIDTH 8 0
BBX 8 17 0 -4
BITMAP
00
00
00
00
06
0C
18
30
60
30
18
0C
06
00
00
00
00
ENDCHAR

STARTCHAR U+003d
ENCODING 61
SWIDTH 392 0
DWIDTH 8 0
BBX 8 17 0 -4
BITMAP
00
00
00
00
00
00
00
7E
00
00
7E
00
00
00
00
00
00
ENDCHAR

STARTCHAR U+003e
ENCODING 62
SWIDTH 392 0
DWIDTH 8 0
BBX 8 17 0 -4
BITMAP
00
00
00
00
60
30
18
0C
06
0C
18
30
60
00
00
00
00
ENDCHAR

STARTCHAR U+003f
ENCODING 63
SWIDTH 392 0
DWIDTH 8 0
BBX 8 17 0 -4
BITMAP
00
00
00
3C
46
06
06
0C
18
00
00
18
18
00
00
00
00
ENDCHAR

STARTCHAR U+0040
ENCODING 64
SWIDTH 392 0
DWIDTH 8 0
BBX 8 17 0 -4
BITMAP
00
00
00
3E
63
63
6F
6B
6B
6B
6F
6F
60
60
3F
00
00
ENDCHAR

STARTCHAR U+0041
ENCODING 65
SWIDTH 392 0
DWIDTH 8 0
BBX 8 17 0 -4
BITMAP
00
00
00
00
18
3C
66
66
66
7E
66
66
66
00
00
00
00
ENDCHAR

STARTCHAR U+0042
ENCODING 66
SWIDTH 392 0
DWIDTH 8 0
BBX 8 17 0 -4
BITMAP
00
00
00
00
7C
66
66
66
7C
66
66
66
7C
00
00
00
00
ENDCHAR

STARTCHAR U+0043
ENCODING 67
SWIDTH 392 0
DWIDTH 8 0
BBX 8 17 0 -4
BITMAP
00
00
00
00
3C
66
60
60
60
60
60
66
3C
00
00
00
00
ENDCHAR

STARTCHAR U+0044
ENCODING 68
SWIDTH 392 0
DWIDTH 8 0
BBX 8 17 0 -4
BITMAP
00
00
00
00
7C
66
66
66
66
66
66
6C
78
00
00
00
00
ENDCHAR

STARTCHAR U+0045
ENCODING 69
SWIDTH 392 0
DWIDTH 8 0
BBX 8 17 0 -4
BITMAP
00
00
00
00
7E
60
60
60
7C
60
60
60
7E
00
00
00
00
ENDCHAR

STARTCHAR U+0046
ENCODING 70
SWIDTH 392 0
DWIDTH 8 0
BBX 8 17 0 -4
BITMAP
00
00
00
00
7E
60
60
60
7C
60
60
60
60
00
00
00
00
ENDCHAR

STARTCHAR U+0047
ENCODING 71
SWIDTH 392 0
DWIDTH 8 0
BBX 8 17 0 -4
BITMAP
00
00
00
00
3C
66
60
60
6E
66
66
66
3E
00
00
00
00
ENDCHAR

STARTCHAR U+0048
ENCODING 72
SWIDTH 392 0
DWIDTH 8 0
BBX 8 17 0 -4
BITMAP
00
00
00
00
66
66
66
66
7E
66
66
66
66
00
00
00
00
ENDCHAR

STARTCHAR U+0049
ENCODING 73
SWIDTH 392 0
DWIDTH 8 0
BBX 8 17 0 -4
BITMAP
00
00
00
00
7E
18
18
18
18
18
18
18
7E
00
00
00
00
ENDCHAR

STARTCHAR U+004a
ENCODING 74
SWIDTH 392 0
DWIDTH 8 0
BBX 8 17 0 -4
BITMAP
00
00
00
00
06
06
06
06
06
06
66
66
3C
00
00
00
00
ENDCHAR

STARTCHAR U+004b
ENCODING 75
SWIDTH 392 0
DWIDTH 8 0
BBX 8 17 0 -4
BITMAP
00
00
00
00
63
66
6C
78
70
78
6C
66
63
00
00
00
00
ENDCHAR

STARTCHAR U+004c
ENCODING 76
SWIDTH 392 0
DWIDTH 8 0
BBX 8 17 0 -4
BITMAP
00
00
00
00
60
60
60
60
60
60
60
60
7E
00
00
00
00
ENDCHAR

STARTCHAR U+004d
ENCODING 77
SWIDTH 392 0
DWIDTH 8 0
BBX 8 17 0 -4
BITMAP
00
00
00
00
63
77
7F
6B
6B
63
63
63
63
00
00
00
00
ENDCHAR

STARTCHAR U+004e
ENCODING 78
SWIDTH 392 0
DWIDTH 8 0
BBX 8 17 0 -4
BITMAP
00
00
00
00
63
73
7B
6F
67
63
63
63
63
00
00
00
00
ENDCHAR

STARTCHAR U+004f
ENCODING 79
SWIDTH 392 0
DWIDTH 8 0
BBX 8 17 0 -4
BITMAP
00
00
00
00
3C
66
66
66
66
66
66
66
3C
00
00
00
00
ENDCHAR

STARTCHAR U+0050
ENCODING 80
SWIDTH 392 0
DWIDTH 8 0
BBX 8 17 0 -4
BITMAP
00
00
00
00
7C
66
66
66
7C
60
60
60
60
00
00
00
00
ENDCHAR

STARTCHAR U+0051
ENCODING 81
SWIDTH 392 0
DWIDTH 8 0
BBX 8 17 0 -4
BITMAP
00
00
00
00
3C
66
66
66
66
66
66
66
3C
0F
00
00
00
ENDCHAR

STARTCHAR U+0052
ENCODING 82
SWIDTH 392 0
DWIDTH 8 0
BBX 8 17 0 -4
BITMAP
00
00
00
00
7C
66
66
66
7C
6C
6C
66
66
00
00
00
00
ENDCHAR

STARTCHAR U+0053
ENCODING 83
SWIDTH 392 0
DWIDTH 8 0
BBX 8 17 0 -4
BITMAP
00
00
00
00
3C
66
60
60
3C
06
06
66
3C
00
00
00
00
ENDCHAR

STARTCHAR U+0054
ENCODING 84
SWIDTH 392 0
DWIDTH 8 0
BBX 8 17 0 -4
BITMAP
00
00
00
00
FF
18
18
18
18
18
18
18
18
00
00
00
00
ENDCHAR

STARTCHAR U+0055
ENCODING 85
SWIDTH 392 0
DWIDTH 8 0
BBX 8 17 0 -4
BITMAP
00
00
00
00
66
66
66
66
66
66
66
66
3C
00
00
00
00
ENDCHAR

STARTCHAR U+0056
ENCODING 86
SWIDTH 392 0
DWIDTH 8 0
BBX 8 17 0 -4
BITMAP
00
00
00
00
66
66
66
66
66
66
66
3C
18
00
00
00
00
ENDCHAR

STARTCHAR U+0057
ENCODING 87
SWIDTH 392 0
DWIDTH 8 0
BBX 8 17 0 -4
BITMAP
00
00
00
00
63
63
63
63
6B
6B
7F
77
63
00
00
00
00
ENDCHAR

STARTCHAR U+0058
ENCODING 88
SWIDTH 392 0
DWIDTH 8 0
BBX 8 17 0 -4
BITMAP
00
00
00
00
63
63
36
1C
1C
1C
36
63
63
00
00
00
00
ENDCHAR

STARTCHAR U+0059
ENCODING 89
SWIDTH 392 0
DWIDTH 8 0
BBX 8 17 0 -4
BITMAP
00
00
00
00
66
66
66
3C
18
18
18
18
18
00
00
00
00
ENDCHAR

STARTCHAR U+005a
ENCODING 90
SWIDTH 392 0
DWIDTH 8 0
BBX 8 17 0 -4
BITMAP
00
00
00
00
7E
0C
0C
18
18
30
30
60
7E
00
00
00
00
ENDCHAR

STARTCHAR U+005b
ENCODING 91
SWIDTH 392 0
DWIDTH 8 0
BBX 8 17 0 -4
BITMAP
00
00
00
3E
30
30
30
30
30
30
30
30
30
30
3E
00
00
ENDCHAR

STARTCHAR U+005c
ENCODING 92
SWIDTH 392 0
DWIDTH 8 0
BBX 8 17 0 -4
BITMAP
00
00
00
60
60
30
30
18
18
0C
0C
06
06
03
03
00
00
ENDCHAR

STARTCHAR U+005d
ENCODING 93
SWIDTH 392 0
DWIDTH 8 0
BBX 8 17 0 -4
BITMAP
00
00
00
7C
0C
0C
0C
0C
0C
0C
0C
0C
0C
0C
7C
00
00
ENDCHAR

STARTCHAR U+005e
ENCODING 94
SWIDTH 392 0
DWIDTH 8 0
BBX 8 17 0 -4
BITMAP
00
00
00
18
3C
66
00
00
00
00
00
00
00
00
00
00
00
ENDCHAR

STARTCHAR U+005f
ENCODING 95
SWIDTH 392 0
DWIDTH 8 0
BBX 8 17 0 -4
BITMAP
00
00
00
00
00
00
00
00
00
00
00
00
00
00
FF
00
00
ENDCHAR

STARTCHAR U+0060
ENCODING 96
SWIDTH 392 0
DWIDTH 8 0
BBX 8 17 0 -4
BITMAP
00
00
30
18
0C
06
00
00
00
00
00
00
00
00
00
00
00
ENDCHAR

STARTCHAR U+0061
ENCODING 97
SWIDTH 392 0
DWIDTH 8 0
BBX 8 17 0 -4
BITMAP
00
00
00
00
00
00
3C
06
06
3E
66
66
3E
00
00
00
00
ENDCHAR

STARTCHAR U+0062
ENCODING 98
SWIDTH 392 0
DWIDTH 8 0
BBX 8 17 0 -4
BITMAP
00
00
00
60
60
60
7C
66
66
66
66
66
7C
00
00
00
00
ENDCHAR

STARTCHAR U+0063
ENCODING 99
SWIDTH 392 0
DWIDTH 8 0
BBX 8 17 0 -4
BITMAP
00
00
00
00
00
00
3C
66
60
60
60
66
3C
00
00
00
00
ENDCHAR

STARTCHAR U+0064
ENCODING 100
SWIDTH 392 0
DWIDTH 8 0
BBX 8 17 0 -4
BITMAP
00
00
00
06
06
06
3E
66
66
66
66
66
3E
00
00
00
00
ENDCHAR

STARTCHAR U+0065
ENCODING 101
SWIDTH 392 0
DWIDTH 8 0
BBX 8 17 0 -4
BITMAP
00
00
00
00
00
00
3C
66
66
7E
60
60
3E
00
00
00
00
ENDCHAR

STARTCHAR U+0066
ENCODING 102
SWIDTH 392 0
DWIDTH 8 0
BBX 8 17 0 -4
BITMAP
00
00
00
1E
33
30
30
7E
30
30
30
30
30
00
00
00
00
ENDCHAR

STARTCHAR U+0067
ENCODING 103
SWIDTH 392 0
DWIDTH 8 0
BBX 8 17 0 -4
BITMAP
00
00
00
00
00
00
3F
66
66
66
3C
60
3E
63
63
3E
00
ENDCHAR

STARTCHAR U+0068
ENCODING 104
SWIDTH 392 0
DWIDTH 8 0
BBX 8 17 0 -4
BITMAP
00
00
00
60
60
60
7C
66
66
66
66
66
66
00
00
00
00
ENDCHAR

STARTCHAR U+0069
ENCODING 105
SWIDTH 392 0
DWIDTH 8 0
BBX 8 17 0 -4
BITMAP
00
00
00
18
18
00
78
18
18
18
18
18
7E
00
00
00
00
ENDCHAR

STARTCHAR U+006a
ENCODING 106
SWIDTH 392 0
DWIDTH 8 0
BBX 8 17 0 -4
BITMAP
00
00
00
0C
0C
00
3C
0C
0C
0C
0C
0C
0C
0C
CC
78
00
ENDCHAR

STARTCHAR U+006b
ENCODING 107
SWIDTH 392 0
DWIDTH 8 0
BBX 8 17 0 -4
BITMAP
00
00
00
60
60
60
66
6C
78
78
6C
66
63
00
00
00
00
ENDCHAR

STARTCHAR U+006c
ENCODING 108
SWIDTH 392 0
DWIDTH 8 0
BBX 8 17 0 -4
BITMAP
00
00
00
78
18
18
18
18
18
18
18
18
0E
00
00
00
00
ENDCHAR

STARTCHAR U+006d
ENCODING 109
SWIDTH 392 0
DWIDTH 8 0
BBX 8 17 0 -4
BITMAP
00
00
00
00
00
00
7E
6B
6B
6B
6B
6B
6B
00
00
00
00
ENDCHAR

STARTCHAR U+006e
ENCODING 110
SWIDTH 392 0
DWIDTH 8 0
BBX 8 17 0 -4
BITMAP
00
00
00
00
00
00
7C
66
66
66
66
66
66
00
00
00
00
ENDCHAR

STARTCHAR U+006f
ENCODING 111
SWIDTH 392 0
DWIDTH 8 0
BBX 8 17 0 -4
BITMAP
00
00
00
00
00
00
3C
66
66
66
66
66
3C
00
00
00
00
ENDCHAR

STARTCHAR U+0070
ENCODING 112
SWIDTH 392 0
DWIDTH 8 0
BBX 8 17 0 -4
BITMAP
00
00
00
00
00
00
7C
66
66
66
66
66
7C
60
60
60
00
ENDCHAR

STARTCHAR U+0071
ENCODING 113
SWIDTH 392 0
DWIDTH 8 0
BBX 8 17 0 -4
BITMAP
00
00
00
00
00
00
3E
66
66
66
66
66
3E
06
06
06
00
ENDCHAR

STARTCHAR U+0072
ENCODING 114
SWIDTH 392 0
DWIDTH 8 0
BBX 8 17 0 -4
BITMAP
00
00
00
00
00
00
6E
70
60
60
60
60
60
00
00
00
00
ENDCHAR

STARTCHAR U+0073
ENCODING 115
SWIDTH 392 0
DWIDTH 8 0
BBX 8 17 0 -4
BITMAP
00
00
00
00
00
00
3E
60
60
3C
06
06
7C
00
00
00
00
ENDCHAR

STARTCHAR U+0074
ENCODING 116
SWIDTH 392 0
DWIDTH 8 0
BBX 8 17 0 -4
BITMAP
00
00
00
00
30
30
7E
30
30
30
30
33
1E
00
00
00
00
ENDCHAR

STARTCHAR U+0075
ENCODING 117
SWIDTH 392 0
DWIDTH 8 0
BBX 8 17 0 -4
BITMAP
00
00
00
00
00
00
66
66
66
66
66
66
3E
00
00
00
00
ENDCHAR

STARTCHAR U+0076
ENCODING 118
SWIDTH 392 0
DWIDTH 8 0
BBX 8 17 0 -4
BITMAP
00
00
00
00
00
00
66
66
66
66
66
3C
18
00
00
00
00
ENDCHAR

STARTCHAR U+0077
ENCODING 119
SWIDTH 392 0
DWIDTH 8 0
BBX 8 17 0 -4
BITMAP
00
00
00
00
00
00
6B
6B
6B
6B
6B
6B
7E
00
00
00
00
ENDCHAR

STARTCHAR U+0078
ENCODING 120
SWIDTH 392 0
DWIDTH 8 0
BBX 8 17 0 -4
BITMAP
00
00
00
00
00
00
66
66
3C
18
3C
66
66
00
00
00
00
ENDCHAR

STARTCHAR U+0079
ENCODING 121
SWIDTH 392 0
DWIDTH 8 0
BBX 8 17 0 -4
BITMAP
00
00
00
00
00
00
66
66
66
66
66
66
3E
06
06
3C
00
ENDCHAR

STARTCHAR U+007a
ENCODING 122
SWIDTH 392 0
DWIDTH 8 0
BBX 8 17 0 -4
BITMAP
00
00
00
00
00
00
7E
06
0C
18
30
60
7E
00
00
00
00
ENDCHAR

STARTCHAR U+007b
ENCODING 123
SWIDTH 392 0
DWIDTH 8 0
BBX 8 17 0 -4
BITMAP
00
00
0E
18
18
18
18
18
70
18
18
18
18
18
0E
00
00
ENDCHAR

STARTCHAR U+007c
ENCODING 124
SWIDTH 392 0
DWIDTH 8 0
BBX 8 17 0 -4
BITMAP
00
00
00
00
18
18
18
18
18
18
18
18
18
18
18
00
00
ENDCHAR

STARTCHAR U+007d
ENCODING 125
SWIDTH 392 0
DWIDTH 8 0
BBX 8 17 0 -4
BITMAP
00
00
70
18
18
18
18
18
0E
18
18
18
18
18
70
00
00
ENDCHAR

STARTCHAR U+007e
ENCODING 126
SWIDTH 392 0
DWIDTH 8 0
BBX 8 17 0 -4
BITMAP
00
00
00
33
7B
6F
66
00
00
00
00
00
00
00
00
00
00
ENDCHAR

STARTCHAR U+0000
ENCODING 160
SWIDTH 392 0
DWIDTH 8 0
BBX 8 17 0 -4
BITMAP
00
00
00
00
00
7E
42
42
42
42
42
42
7E
00
00
00
00
ENDCHAR

STARTCHAR U+0000
ENCODING 161
SWIDTH 392 0
DWIDTH 8 0
BBX 8 17 0 -4
BITMAP
00
00
00
00
00
7E
42
42
42
42
42
42
7E
00
00
00
00
ENDCHAR

STARTCHAR U+0000
ENCODING 162
SWIDTH 392 0
DWIDTH 8 0
BBX 8 17 0 -4
BITMAP
00
00
00
00
00
7E
42
42
42
42
42
42
7E
00
00
00
00
ENDCHAR

STARTCHAR U+0000
ENCODING 163
SWIDTH 392 0
DWIDTH 8 0
BBX 8 17 0 -4
BITMAP
00
00
00
00
00
7E
42
42
42
42
42
42
7E
00
00
00
00
ENDCHAR

STARTCHAR U+0000
ENCODING 164
SWIDTH 392 0
DWIDTH 8 0
BBX 8 17 0 -4
BITMAP
00
00
00
00
00
7E
42
42
42
42
42
42
7E
00
00
00
00
ENDCHAR

STARTCHAR U+0000
ENCODING 165
SWIDTH 392 0
DWIDTH 8 0
BBX 8 17 0 -4
BITMAP
00
00
00
00
00
7E
42
42
42
42
42
42
7E
00
00
00
00
ENDCHAR

STARTCHAR U+0000
ENCODING 166
SWIDTH 392 0
DWIDTH 8 0
BBX 8 17 0 -4
BITMAP
00
00
00
00
00
7E
42
42
42
42
42
42
7E
00
00
00
00
ENDCHAR

STARTCHAR U+0000
ENCODING 167
SWIDTH 392 0
DWIDTH 8 0
BBX 8 17 0 -4
BITMAP
00
00
00
00
00
7E
42
42
42
42
42
42
7E
00
00
00
00
ENDCHAR

STARTCHAR U+0000
ENCODING 168
SWIDTH 392 0
DWIDTH 8 0
BBX 8 17 0 -4
BITMAP
00
00
00
00
00
7E
42
42
42
42
42
42
7E
00
00
00
00
ENDCHAR

STARTCHAR U+0000
ENCODING 169
SWIDTH 392 0
DWIDTH 8 0
BBX 8 17 0 -4
BITMAP
00
00
00
00
00
7E
42
42
42
42
42
42
7E
00
00
00
00
ENDCHAR

STARTCHAR U+0000
ENCODING 170
SWIDTH 392 0
DWIDTH 8 0
BBX 8 17 0 -4
BITMAP
00
00
00
00
00
7E
42
42
42
42
42
42
7E
00
00
00
00
ENDCHAR

STARTCHAR U+0000
ENCODING 171
SWIDTH 392 0
DWIDTH 8 0
BBX 8 17 0 -4
BITMAP
00
00
00
00
00
7E
42
42
42
42
42
42
7E
00
00
00
00
ENDCHAR

STARTCHAR U+0000
ENCODING 172
SWIDTH 392 0
DWIDTH 8 0
BBX 8 17 0 -4
BITMAP
00
00
00
00
00
7E
42
42
42
42
42
42
7E
00
00
00
00
ENDCHAR

STARTCHAR U+0000
ENCODING 173
SWIDTH 392 0
DWIDTH 8 0
BBX 8 17 0 -4
BITMAP
00
00
00
00
00
7E
42
42
42
42
42
42
7E
00
00
00
00
ENDCHAR

STARTCHAR U+0000
ENCODING 174
SWIDTH 392 0
DWIDTH 8 0
BBX 8 17 0 -4
BITMAP
00
00
00
00
00
7E
42
42
42
42
42
42
7E
00
00
00
00
ENDCHAR

STARTCHAR U+0000
ENCODING 175
SWIDTH 392 0
DWIDTH 8 0
BBX 8 17 0 -4
BITMAP
00
00
00
00
00
7E
42
42
42
42
42
42
7E
00
00
00
00
ENDCHAR

STARTCHAR U+0000
ENCODING 176
SWIDTH 392 0
DWIDTH 8 0
BBX 8 17 0 -4
BITMAP
00
00
00
00
00
7E
42
42
42
42
42
42
7E
00
00
00
00
ENDCHAR

STARTCHAR U+0000
ENCODING 177
SWIDTH 392 0
DWIDTH 8 0
BBX 8 17 0 -4
BITMAP
00
00
00
00
00
7E
42
42
42
42
42
42
7E
00
00
00
00
ENDCHAR

STARTCHAR U+0000
ENCODING 178
SWIDTH 392 0
DWIDTH 8 0
BBX 8 17 0 -4
BITMAP
00
00
00
00
00
7E
42
42
42
42
42
42
7E
00
00
00
00
ENDCHAR

STARTCHAR U+0000
ENCODING 179
SWIDTH 392 0
DWIDTH 8 0
BBX 8 17 0 -4
BITMAP
00
00
00
00
00
7E
42
42
42
42
42
42
7E
00
00
00
00
ENDCHAR

STARTCHAR U+0000
ENCODING 180
SWIDTH 392 0
DWIDTH 8 0
BBX 8 17 0 -4
BITMAP
00
00
00
00
00
7E
42
42
42
42
42
42
7E
00
00
00
00
ENDCHAR

STARTCHAR U+0000
ENCODING 181
SWIDTH 392 0
DWIDTH 8 0
BBX 8 17 0 -4
BITMAP
00
00
00
00
00
7E
42
42
42
42
42
42
7E
00
00
00
00
ENDCHAR

STARTCHAR U+0000
ENCODING 182
SWIDTH 392 0
DWIDTH 8 0
BBX 8 17 0 -4
BITMAP
00
00
00
00
00
7E
42
42
42
42
42
42
7E
00
00
00
00
ENDCHAR

STARTCHAR U+0000
ENCODING 183
SWIDTH 392 0
DWIDTH 8 0
BBX 8 17 0 -4
BITMAP
00
00
00
00
00
7E
42
42
42
42
42
42
7E
00
00
00
00
ENDCHAR

STARTCHAR U+0000
ENCODING 184
SWIDTH 392 0
DWIDTH 8 0
BBX 8 17 0 -4
BITMAP
00
00
00
00
00
7E
42
42
42
42
42
42
7E
00
00
00
00
ENDCHAR

STARTCHAR U+0000
ENCODING 185
SWIDTH 392 0
DWIDTH 8 0
BBX 8 17 0 -4
BITMAP
00
00
00
00
00
7E
42
42
42
42
42
42
7E
00
00
00
00
ENDCHAR

STARTCHAR U+0000
ENCODING 186
SWIDTH 392 0
DWIDTH 8 0
BBX 8 17 0 -4
BITMAP
00
00
00
00
00
7E
42
42
42
42
42
42
7E
00
00
00
00
ENDCHAR

STARTCHAR U+0000
ENCODING 187
SWIDTH 392 0
DWIDTH 8 0
BBX 8 17 0 -4
BITMAP
00
00
00
00
00
7E
42
42
42
42
42
42
7E
00
00
00
00
ENDCHAR

STARTCHAR U+0000
ENCODING 188
SWIDTH 392 0
DWIDTH 8 0
BBX 8 17 0 -4
BITMAP
00
00
00
00
00
7E
42
42
42
42
42
42
7E
00
00
00
00
ENDCHAR

STARTCHAR U+0000
ENCODING 189
SWIDTH 392 0
DWIDTH 8 0
BBX 8 17 0 -4
BITMAP
00
00
00
00
00
7E
42
42
42
42
42
42
7E
00
00
00
00
ENDCHAR

STARTCHAR U+0000
ENCODING 190
SWIDTH 392 0
DWIDTH 8 0
BBX 8 17 0 -4
BITMAP
00
00
00
00
00
7E
42
42
42
42
42
42
7E
00
00
00
00
ENDCHAR

STARTCHAR U+0000
ENCODING 191
SWIDTH 392 0
DWIDTH 8 0
BBX 8 17 0 -4
BITMAP
00
00
00
00
00
7E
42
42
42
42
42
42
7E
00
00
00
00
ENDCHAR

STARTCHAR U+0000
ENCODING 192
SWIDTH 392 0
DWIDTH 8 0
BBX 8 17 0 -4
BITMAP
00
00
00
00
00
7E
42
42
42
42
42
42
7E
00
00
00
00
ENDCHAR

STARTCHAR U+0000
ENCODING 193
SWIDTH 392 0
DWIDTH 8 0
BBX 8 17 0 -4
BITMAP
00
00
00
00
00
7E
42
42
42
42
42
42
7E
00
00
00
00
ENDCHAR

STARTCHAR U+0000
ENCODING 194
SWIDTH 392 0
DWIDTH 8 0
BBX 8 17 0 -4
BITMAP
00
00
00
00
00
7E
42
42
42
42
42
42
7E
00
00
00
00
ENDCHAR

STARTCHAR U+0000
ENCODING 195
SWIDTH 392 0
DWIDTH 8 0
BBX 8 17 0 -4
BITMAP
00
00
00
00
00
7E
42
42
42
42
42
42
7E
00
00
00
00
ENDCHAR

STARTCHAR U+0000
ENCODING 196
SWIDTH 392 0
DWIDTH 8 0
BBX 8 17 0 -4
BITMAP
00
00
00
00
00
7E
42
42
42
42
42
42
7E
00
00
00
00
ENDCHAR

STARTCHAR U+0000
ENCODING 197
SWIDTH 392 0
DWIDTH 8 0
BBX 8 17 0 -4
BITMAP
00
00
00
00
00
7E
42
42
42
42
42
42
7E
00
00
00
00
ENDCHAR

STARTCHAR U+0000
ENCODING 198
SWIDTH 392 0
DWIDTH 8 0
BBX 8 17 0 -4
BITMAP
00
00
00
00
00
7E
42
42
42
42
42
42
7E
00
00
00
00
ENDCHAR

STARTCHAR U+0000
ENCODING 199
SWIDTH 392 0
DWIDTH 8 0
BBX 8 17 0 -4
BITMAP
00
00
00
00
00
7E
42
42
42
42
42
42
7E
00
00
00
00
ENDCHAR

STARTCHAR U+0000
ENCODING 200
SWIDTH 392 0
DWIDTH 8 0
BBX 8 17 0 -4
BITMAP
00
00
00
00
00
7E
42
42
42
42
42
42
7E
00
00
00
00
ENDCHAR

STARTCHAR U+0000
ENCODING 201
SWIDTH 392 0
DWIDTH 8 0
BBX 8 17 0 -4
BITMAP
00
00
00
00
00
7E
42
42
42
42
42
42
7E
00
00
00
00
ENDCHAR

STARTCHAR U+0000
ENCODING 202
SWIDTH 392 0
DWIDTH 8 0
BBX 8 17 0 -4
BITMAP
00
00
00
00
00
7E
42
42
42
42
42
42
7E
00
00
00
00
ENDCHAR

STARTCHAR U+0000
ENCODING 203
SWIDTH 392 0
DWIDTH 8 0
BBX 8 17 0 -4
BITMAP
00
00
00
00
00
7E
42
42
42
42
42
42
7E
00
00
00
00
ENDCHAR

STARTCHAR U+0000
ENCODING 204
SWIDTH 392 0
DWIDTH 8 0
BBX 8 17 0 -4
BITMAP
00
00
00
00
00
7E
42
42
42
42
42
42
7E
00
00
00
00
ENDCHAR

STARTCHAR U+0000
ENCODING 205
SWIDTH 392 0
DWIDTH 8 0
BBX 8 17 0 -4
BITMAP
00
00
00
00
00
7E
42
42
42
42
42
42
7E
00
00
00
00
ENDCHAR

STARTCHAR U+0000
ENCODING 206
SWIDTH 392 0
DWIDTH 8 0
BBX 8 17 0 -4
BITMAP
00
00
00
00
00
7E
42
42
42
42
42
42
7E
00
00
00
00
ENDCHAR

STARTCHAR U+0000
ENCODING 207
SWIDTH 392 0
DWIDTH 8 0
BBX 8 17 0 -4
BITMAP
00
00
00
00
00
7E
42
42
42
42
42
42
7E
00
00
00
00
ENDCHAR

STARTCHAR U+0000
ENCODING 208
SWIDTH 392 0
DWIDTH 8 0
BBX 8 17 0 -4
BITMAP
00
00
00
00
00
7E
42
42
42
42
42
42
7E
00
00
00
00
ENDCHAR

STARTCHAR U+0000
ENCODING 209
SWIDTH 392 0
DWIDTH 8 0
BBX 8 17 0 -4
BITMAP
00
00
00
00
00
7E
42
42
42
42
42
42
7E
00
00
00
00
ENDCHAR

STARTCHAR U+0000
ENCODING 210
SWIDTH 392 0
DWIDTH 8 0
BBX 8 17 0 -4
BITMAP
00
00
00
00
00
7E
42
42
42
42
42
42
7E
00
00
00
00
ENDCHAR

STARTCHAR U+0000
ENCODING 211
SWIDTH 392 0
DWIDTH 8 0
BBX 8 17 0 -4
BITMAP
00
00
00
00
00
7E
42
42
42
42
42
42
7E
00
00
00
00
ENDCHAR

STARTCHAR U+0000
ENCODING 212
SWIDTH 392 0
DWIDTH 8 0
BBX 8 17 0 -4
BITMAP
00
00
00
00
00
7E
42
42
42
42
42
42
7E
00
00
00
00
ENDCHAR

STARTCHAR U+0000
ENCODING 213
SWIDTH 392 0
DWIDTH 8 0
BBX 8 17 0 -4
BITMAP
00
00
00
00
00
7E
42
42
42
42
42
42
7E
00
00
00
00
ENDCHAR

STARTCHAR U+0000
ENCODING 214
SWIDTH 392 0
DWIDTH 8 0
BBX 8 17 0 -4
BITMAP
00
00
00
00
00
7E
42
42
42
42
42
42
7E
00
00
00
00
ENDCHAR

STARTCHAR U+0000
ENCODING 215
SWIDTH 392 0
DWIDTH 8 0
BBX 8 17 0 -4
BITMAP
00
00
00
00
00
7E
42
42
42
42
42
42
7E
00
00
00
00
ENDCHAR

STARTCHAR U+0000
ENCODING 216
SWIDTH 392 0
DWIDTH 8 0
BBX 8 17 0 -4
BITMAP
00
00
00
00
00
7E
42
42
42
42
42
42
7E
00
00
00
00
ENDCHAR

STARTCHAR U+0000
ENCODING 217
SWIDTH 392 0
DWIDTH 8 0
BBX 8 17 0 -4
BITMAP
00
00
00
00
00
7E
42
42
42
42
42
42
7E
00
00
00
00
ENDCHAR

STARTCHAR U+0000
ENCODING 218
SWIDTH 392 0
DWIDTH 8 0
BBX 8 17 0 -4
BITMAP
00
00
00
00
00
7E
42
42
42
42
42
42
7E
00
00
00
00
ENDCHAR

STARTCHAR U+0000
ENCODING 219
SWIDTH 392 0
DWIDTH 8 0
BBX 8 17 0 -4
BITMAP
00
00
00
00
00
7E
42
42
42
42
42
42
7E
00
00
00
00
ENDCHAR

STARTCHAR U+0000
ENCODING 220
SWIDTH 392 0
DWIDTH 8 0
BBX 8 17 0 -4
BITMAP
00
00
00
00
00
7E
42
42
42
42
42
42
7E
00
00
00
00
ENDCHAR

STARTCHAR U+0000
ENCODING 221
SWIDTH 392 0
DWIDTH 8 0
BBX 8 17 0 -4
BITMAP
00
00
00
00
00
7E
42
42
42
42
42
42
7E
00
00
00
00
ENDCHAR

STARTCHAR U+0000
ENCODING 222
SWIDTH 392 0
DWIDTH 8 0
BBX 8 17 0 -4
BITMAP
00
00
00
00
00
7E
42
42
42
42
42
42
7E
00
00
00
00
ENDCHAR

STARTCHAR U+0000
ENCODING 223
SWIDTH 392 0
DWIDTH 8 0
BBX 8 17 0 -4
BITMAP
00
00
00
00
00
7E
42
42
42
42
42
42
7E
00
00
00
00
ENDCHAR

STARTCHAR U+0000
ENCODING 224
SWIDTH 392 0
DWIDTH 8 0
BBX 8 17 0 -4
BITMAP
00
00
00
00
00
7E
42
42
42
42
42
42
7E
00
00
00
00
ENDCHAR

STARTCHAR U+0000
ENCODING 225
SWIDTH 392 0
DWIDTH 8 0
BBX 8 17 0 -4
BITMAP
00
00
00
00
00
7E
42
42
42
42
42
42
7E
00
00
00
00
ENDCHAR

STARTCHAR U+0000
ENCODING 226
SWIDTH 392 0
DWIDTH 8 0
BBX 8 17 0 -4
BITMAP
00
00
00
00
00
7E
42
42
42
42
42
42
7E
00
00
00
00
ENDCHAR

STARTCHAR U+0000
ENCODING 227
SWIDTH 392 0
DWIDTH 8 0
BBX 8 17 0 -4
BITMAP
00
00
00
00
00
7E
42
42
42
42
42
42
7E
00
00
00
00
ENDCHAR

STARTCHAR U+0000
ENCODING 228
SWIDTH 392 0
DWIDTH 8 0
BBX 8 17 0 -4
BITMAP
00
00
00
00
00
7E
42
42
42
42
42
42
7E
00
00
00
00
ENDCHAR

STARTCHAR U+0000
ENCODING 229
SWIDTH 392 0
DWIDTH 8 0
BBX 8 17 0 -4
BITMAP
00
00
00
00
00
7E
42
42
42
42
42
42
7E
00
00
00
00
ENDCHAR

STARTCHAR U+0000
ENCODING 230
SWIDTH 392 0
DWIDTH 8 0
BBX 8 17 0 -4
BITMAP
00
00
00
00
00
7E
42
42
42
42
42
42
7E
00
00
00
00
ENDCHAR

STARTCHAR U+0000
ENCODING 231
SWIDTH 392 0
DWIDTH 8 0
BBX 8 17 0 -4
BITMAP
00
00
00
00
00
7E
42
42
42
42
42
42
7E
00
00
00
00
ENDCHAR

STARTCHAR U+0000
ENCODING 232
SWIDTH 392 0
DWIDTH 8 0
BBX 8 17 0 -4
BITMAP
00
00
00
00
00
7E
42
42
42
42
42
42
7E
00
00
00
00
ENDCHAR

STARTCHAR U+0000
ENCODING 233
SWIDTH 392 0
DWIDTH 8 0
BBX 8 17 0 -4
BITMAP
00
00
00
00
00
7E
42
42
42
42
42
42
7E
00
00
00
00
ENDCHAR

STARTCHAR U+0000
ENCODING 234
SWIDTH 392 0
DWIDTH 8 0
BBX 8 17 0 -4
BITMAP
00
00
00
00
00
7E
42
42
42
42
42
42
7E
00
00
00
00
ENDCHAR

STARTCHAR U+0000
ENCODING 235
SWIDTH 392 0
DWIDTH 8 0
BBX 8 17 0 -4
BITMAP
00
00
00
00
00
7E
42
42
42
42
42
42
7E
00
00
00
00
ENDCHAR

STARTCHAR U+0000
ENCODING 236
SWIDTH 392 0
DWIDTH 8 0
BBX 8 17 0 -4
BITMAP
00
00
00
00
00
7E
42
42
42
42
42
42
7E
00
00
00
00
ENDCHAR

STARTCHAR U+0000
ENCODING 237
SWIDTH 392 0
DWIDTH 8 0
BBX 8 17 0 -4
BITMAP
00
00
00
00
00
7E
42
42
42
42
42
42
7E
00
00
00
00
ENDCHAR

STARTCHAR U+0000
ENCODING 238
SWIDTH 392 0
DWIDTH 8 0
BBX 8 17 0 -4
BITMAP
00
00
00
00
00
7E
42
42
42
42
42
42
7E
00
00
00
00
ENDCHAR

STARTCHAR U+0000
ENCODING 239
SWIDTH 392 0
DWIDTH 8 0
BBX 8 17 0 -4
BITMAP
00
00
00
00
00
7E
42
42
42
42
42
42
7E
00
00
00
00
ENDCHAR

STARTCHAR U+0000
ENCODING 240
SWIDTH 392 0
DWIDTH 8 0
BBX 8 17 0 -4
BITMAP
00
00
00
00
00
7E
42
42
42
42
42
42
7E
00
00
00
00
ENDCHAR

STARTCHAR U+0000
ENCODING 241
SWIDTH 392 0
DWIDTH 8 0
BBX 8 17 0 -4
BITMAP
00
00
00
00
00
7E
42
42
42
42
42
42
7E
00
00
00
00
ENDCHAR

STARTCHAR U+0000
ENCODING 242
SWIDTH 392 0
DWIDTH 8 0
BBX 8 17 0 -4
BITMAP
00
00
00
00
00
7E
42
42
42
42
42
42
7E
00
00
00
00
ENDCHAR

STARTCHAR U+0000
ENCODING 243
SWIDTH 392 0
DWIDTH 8 0
BBX 8 17 0 -4
BITMAP
00
00
00
00
00
7E
42
42
42
42
42
42
7E
00
00
00
00
ENDCHAR

STARTCHAR U+0000
ENCODING 244
SWIDTH 392 0
DWIDTH 8 0
BBX 8 17 0 -4
BITMAP
00
00
00
00
00
7E
42
42
42
42
42
42
7E
00
00
00
00
ENDCHAR

STARTCHAR U+0000
ENCODING 245
SWIDTH 392 0
DWIDTH 8 0
BBX 8 17 0 -4
BITMAP
00
00
00
00
00
7E
42
42
42
42
42
42
7E
00
00
00
00
ENDCHAR

STARTCHAR U+0000
ENCODING 246
SWIDTH 392 0
DWIDTH 8 0
BBX 8 17 0 -4
BITMAP
00
00
00
00
00
7E
42
42
42
42
42
42
7E
00
00
00
00
ENDCHAR

STARTCHAR U+0000
ENCODING 247
SWIDTH 392 0
DWIDTH 8 0
BBX 8 17 0 -4
BITMAP
00
00
00
00
00
7E
42
42
42
42
42
42
7E
00
00
00
00
ENDCHAR

STARTCHAR U+0000
ENCODING 248
SWIDTH 392 0
DWIDTH 8 0
BBX 8 17 0 -4
BITMAP
00
00
00
00
00
7E
42
42
42
42
42
42
7E
00
00
00
00
ENDCHAR

STARTCHAR U+0000
ENCODING 249
SWIDTH 392 0
DWIDTH 8 0
BBX 8 17 0 -4
BITMAP
00
00
00
00
00
7E
42
42
42
42
42
42
7E
00
00
00
00
ENDCHAR

STARTCHAR U+0000
ENCODING 250
SWIDTH 392 0
DWIDTH 8 0
BBX 8 17 0 -4
BITMAP
00
00
00
00
00
7E
42
42
42
42
42
42
7E
00
00
00
00
ENDCHAR

STARTCHAR U+0000
ENCODING 251
SWIDTH 392 0
DWIDTH 8 0
BBX 8 17 0 -4
BITMAP
00
00
00
00
00
7E
42
42
42
42
42
42
7E
00
00
00
00
ENDCHAR

STARTCHAR U+0000
ENCODING 252
SWIDTH 392 0
DWIDTH 8 0
BBX 8 17 0 -4
BITMAP
00
00
00
00
00
7E
42
42
42
42
42
42
7E
00
00
00
00
ENDCHAR

STARTCHAR U+0000
ENCODING 253
SWIDTH 392 0
DWIDTH 8 0
BBX 8 17 0 -4
BITMAP
00
00
00
00
00
7E
42
42
42
42
42
42
7E
00
00
00
00
ENDCHAR

STARTCHAR U+0000
ENCODING 254
SWIDTH 392 0
DWIDTH 8 0
BBX 8 17 0 -4
BITMAP
00
00
00
00
00
7E
42
42
42
42
42
42
7E
00
00
00
00
ENDCHAR

STARTCHAR U+0000
ENCODING 255
SWIDTH 392 0
DWIDTH 8 0
BBX 8 17 0 -4
BITMAP
00
00
00
00
00
7E
42
42
42
42
42
42
7E
00
00
00
00
ENDCHAR
ENDFONT
